<mxfile host="app.diagrams.net" agent="Mozilla/5.0 (Windows NT 10.0; Win64; x64) AppleWebKit/537.36 (KHTML, like Gecko) Chrome/128.0.0.0 Safari/537.36 OPR/114.0.0.0" version="25.0.1">
  <diagram name="PÃ¡gina-1" id="BI-UwVB-AkPJguCCC9fK">
    <mxGraphModel dx="826" dy="507" grid="1" gridSize="10" guides="1" tooltips="1" connect="1" arrows="1" fold="1" page="1" pageScale="1" pageWidth="827" pageHeight="1169" math="0" shadow="0">
      <root>
        <mxCell id="0" />
        <mxCell id="1" parent="0" />
        <mxCell id="Pu0Vnvr2uqm07rSc8rj7-28" value="" style="rounded=0;whiteSpace=wrap;html=1;fillColor=#fff2cc;dashed=1;strokeColor=#d6b656;glass=0;shadow=0;movable=0;resizable=0;rotatable=0;deletable=0;editable=0;locked=1;connectable=0;" vertex="1" parent="1">
          <mxGeometry x="438" y="100" width="382" height="330" as="geometry" />
        </mxCell>
        <mxCell id="Pu0Vnvr2uqm07rSc8rj7-5" value="" style="shape=image;verticalLabelPosition=bottom;labelBackgroundColor=default;verticalAlign=top;aspect=fixed;imageAspect=0;image=https://www.zohowebstatic.com/sites/zweb/images/productlogos/crm.svg;" vertex="1" parent="1">
          <mxGeometry x="130" y="246.26" width="110" height="45.47" as="geometry" />
        </mxCell>
        <mxCell id="Pu0Vnvr2uqm07rSc8rj7-7" value="" style="group;fontColor=none;noLabel=1;" vertex="1" connectable="0" parent="1">
          <mxGeometry x="330" y="230" width="90" height="108" as="geometry" />
        </mxCell>
        <mxCell id="Pu0Vnvr2uqm07rSc8rj7-3" value="" style="sketch=0;points=[[0,0,0],[0.25,0,0],[0.5,0,0],[0.75,0,0],[1,0,0],[0,1,0],[0.25,1,0],[0.5,1,0],[0.75,1,0],[1,1,0],[0,0.25,0],[0,0.5,0],[0,0.75,0],[1,0.25,0],[1,0.5,0],[1,0.75,0]];outlineConnect=0;fontColor=#232F3E;fillColor=#E7157B;strokeColor=#ffffff;dashed=0;verticalLabelPosition=bottom;verticalAlign=top;align=center;html=1;fontSize=12;fontStyle=0;aspect=fixed;shape=mxgraph.aws4.resourceIcon;resIcon=mxgraph.aws4.api_gateway;" vertex="1" parent="Pu0Vnvr2uqm07rSc8rj7-7">
          <mxGeometry x="6" width="78" height="78" as="geometry" />
        </mxCell>
        <mxCell id="Pu0Vnvr2uqm07rSc8rj7-6" value="API Gateway" style="text;html=1;align=center;verticalAlign=middle;resizable=0;points=[];autosize=1;strokeColor=none;fillColor=none;fontColor=default;" vertex="1" parent="Pu0Vnvr2uqm07rSc8rj7-7">
          <mxGeometry y="78" width="90" height="30" as="geometry" />
        </mxCell>
        <mxCell id="Pu0Vnvr2uqm07rSc8rj7-9" value="" style="group" vertex="1" connectable="0" parent="1">
          <mxGeometry x="600" y="140" width="80" height="108" as="geometry" />
        </mxCell>
        <mxCell id="Pu0Vnvr2uqm07rSc8rj7-1" value="" style="sketch=0;points=[[0,0,0],[0.25,0,0],[0.5,0,0],[0.75,0,0],[1,0,0],[0,1,0],[0.25,1,0],[0.5,1,0],[0.75,1,0],[1,1,0],[0,0.25,0],[0,0.5,0],[0,0.75,0],[1,0.25,0],[1,0.5,0],[1,0.75,0]];outlineConnect=0;fontColor=#232F3E;fillColor=#C925D1;strokeColor=#ffffff;dashed=0;verticalLabelPosition=bottom;verticalAlign=top;align=center;html=1;fontSize=12;fontStyle=0;aspect=fixed;shape=mxgraph.aws4.resourceIcon;resIcon=mxgraph.aws4.dynamodb;" vertex="1" parent="Pu0Vnvr2uqm07rSc8rj7-9">
          <mxGeometry x="1" width="78" height="78" as="geometry" />
        </mxCell>
        <mxCell id="Pu0Vnvr2uqm07rSc8rj7-8" value="DynamoDB" style="text;html=1;align=center;verticalAlign=middle;resizable=0;points=[];autosize=1;strokeColor=none;fillColor=none;fontColor=default;" vertex="1" parent="Pu0Vnvr2uqm07rSc8rj7-9">
          <mxGeometry y="78" width="80" height="30" as="geometry" />
        </mxCell>
        <mxCell id="Pu0Vnvr2uqm07rSc8rj7-15" style="edgeStyle=orthogonalEdgeStyle;rounded=0;orthogonalLoop=1;jettySize=auto;html=1;exitX=1;exitY=0.5;exitDx=0;exitDy=0;exitPerimeter=0;entryX=0;entryY=0.5;entryDx=0;entryDy=0;entryPerimeter=0;startArrow=classic;startFill=1;endArrow=classic;endFill=1;movable=0;resizable=0;rotatable=0;deletable=0;editable=0;locked=1;connectable=0;" edge="1" parent="1" source="Pu0Vnvr2uqm07rSc8rj7-3" target="Pu0Vnvr2uqm07rSc8rj7-2">
          <mxGeometry relative="1" as="geometry" />
        </mxCell>
        <mxCell id="Pu0Vnvr2uqm07rSc8rj7-18" style="edgeStyle=orthogonalEdgeStyle;rounded=0;orthogonalLoop=1;jettySize=auto;html=1;exitX=0;exitY=0.5;exitDx=0;exitDy=0;exitPerimeter=0;entryX=1;entryY=0.5;entryDx=0;entryDy=0;startArrow=classic;startFill=1;" edge="1" parent="1" source="Pu0Vnvr2uqm07rSc8rj7-3" target="Pu0Vnvr2uqm07rSc8rj7-5">
          <mxGeometry relative="1" as="geometry" />
        </mxCell>
        <mxCell id="Pu0Vnvr2uqm07rSc8rj7-19" value="ZohoAPI" style="edgeLabel;html=1;align=center;verticalAlign=middle;resizable=0;points=[];" vertex="1" connectable="0" parent="Pu0Vnvr2uqm07rSc8rj7-18">
          <mxGeometry x="0.076" y="1" relative="1" as="geometry">
            <mxPoint x="7" y="-1" as="offset" />
          </mxGeometry>
        </mxCell>
        <mxCell id="Pu0Vnvr2uqm07rSc8rj7-24" style="edgeStyle=orthogonalEdgeStyle;rounded=0;orthogonalLoop=1;jettySize=auto;html=1;exitX=1;exitY=0.25;exitDx=0;exitDy=0;exitPerimeter=0;entryX=0;entryY=0.5;entryDx=0;entryDy=0;entryPerimeter=0;startArrow=classic;startFill=1;movable=0;resizable=0;rotatable=0;deletable=0;editable=0;locked=1;connectable=0;" edge="1" parent="1" source="Pu0Vnvr2uqm07rSc8rj7-2" target="Pu0Vnvr2uqm07rSc8rj7-1">
          <mxGeometry relative="1" as="geometry" />
        </mxCell>
        <mxCell id="Pu0Vnvr2uqm07rSc8rj7-29" value="" style="sketch=0;points=[[0,0,0],[0.25,0,0],[0.5,0,0],[0.75,0,0],[1,0,0],[0,1,0],[0.25,1,0],[0.5,1,0],[0.75,1,0],[1,1,0],[0,0.25,0],[0,0.5,0],[0,0.75,0],[1,0.25,0],[1,0.5,0],[1,0.75,0]];outlineConnect=0;fontColor=#232F3E;fillColor=#8C4FFF;strokeColor=#ffffff;dashed=0;verticalLabelPosition=bottom;verticalAlign=top;align=center;html=1;fontSize=12;fontStyle=0;aspect=fixed;shape=mxgraph.aws4.resourceIcon;resIcon=mxgraph.aws4.serverless;" vertex="1" parent="1">
          <mxGeometry x="450" y="110" width="30" height="30" as="geometry" />
        </mxCell>
        <mxCell id="Pu0Vnvr2uqm07rSc8rj7-14" value="" style="group" vertex="1" connectable="0" parent="1">
          <mxGeometry x="460" y="230" width="78" height="108" as="geometry" />
        </mxCell>
        <mxCell id="Pu0Vnvr2uqm07rSc8rj7-2" value="" style="sketch=0;points=[[0,0,0],[0.25,0,0],[0.5,0,0],[0.75,0,0],[1,0,0],[0,1,0],[0.25,1,0],[0.5,1,0],[0.75,1,0],[1,1,0],[0,0.25,0],[0,0.5,0],[0,0.75,0],[1,0.25,0],[1,0.5,0],[1,0.75,0]];outlineConnect=0;fontColor=#232F3E;fillColor=#ED7100;strokeColor=#ffffff;dashed=0;verticalLabelPosition=bottom;verticalAlign=top;align=center;html=1;fontSize=12;fontStyle=0;aspect=fixed;shape=mxgraph.aws4.resourceIcon;resIcon=mxgraph.aws4.lambda;" vertex="1" parent="Pu0Vnvr2uqm07rSc8rj7-14">
          <mxGeometry width="78" height="78" as="geometry" />
        </mxCell>
        <mxCell id="Pu0Vnvr2uqm07rSc8rj7-13" value="Lambda" style="text;html=1;align=center;verticalAlign=middle;resizable=0;points=[];autosize=1;strokeColor=none;fillColor=none;fontColor=default;" vertex="1" parent="Pu0Vnvr2uqm07rSc8rj7-14">
          <mxGeometry x="4" y="78" width="70" height="30" as="geometry" />
        </mxCell>
        <mxCell id="Pu0Vnvr2uqm07rSc8rj7-25" style="edgeStyle=orthogonalEdgeStyle;rounded=0;orthogonalLoop=1;jettySize=auto;html=1;exitX=1;exitY=0.75;exitDx=0;exitDy=0;exitPerimeter=0;entryX=0;entryY=0.5;entryDx=0;entryDy=0;entryPerimeter=0;startArrow=classic;startFill=1;movable=0;resizable=0;rotatable=0;deletable=0;editable=0;locked=1;connectable=0;" edge="1" parent="1" source="Pu0Vnvr2uqm07rSc8rj7-2" target="Pu0Vnvr2uqm07rSc8rj7-4">
          <mxGeometry relative="1" as="geometry" />
        </mxCell>
        <mxCell id="Pu0Vnvr2uqm07rSc8rj7-23" value="" style="shape=mxgraph.signs.tech.mail;html=1;pointerEvents=1;fillColor=#000000;strokeColor=none;verticalLabelPosition=bottom;verticalAlign=top;align=center;" vertex="1" parent="1">
          <mxGeometry x="730" y="290" width="50" height="30" as="geometry" />
        </mxCell>
        <mxCell id="Pu0Vnvr2uqm07rSc8rj7-26" style="edgeStyle=orthogonalEdgeStyle;rounded=0;orthogonalLoop=1;jettySize=auto;html=1;exitX=1;exitY=0.25;exitDx=0;exitDy=0;exitPerimeter=0;entryX=0;entryY=0.5;entryDx=0;entryDy=0;entryPerimeter=0;movable=0;resizable=0;rotatable=0;deletable=0;editable=0;locked=1;connectable=0;" edge="1" parent="1" source="Pu0Vnvr2uqm07rSc8rj7-4" target="Pu0Vnvr2uqm07rSc8rj7-23">
          <mxGeometry relative="1" as="geometry" />
        </mxCell>
        <mxCell id="Pu0Vnvr2uqm07rSc8rj7-22" value="" style="dashed=0;outlineConnect=0;html=1;align=center;labelPosition=center;verticalLabelPosition=bottom;verticalAlign=top;shape=mxgraph.weblogos.whatsapp;fillColor=#00E676;strokeColor=#dddddd" vertex="1" parent="1">
          <mxGeometry x="730" y="360" width="42.2" height="42.43" as="geometry" />
        </mxCell>
        <mxCell id="Pu0Vnvr2uqm07rSc8rj7-27" style="edgeStyle=orthogonalEdgeStyle;rounded=0;orthogonalLoop=1;jettySize=auto;html=1;exitX=1;exitY=0.75;exitDx=0;exitDy=0;exitPerimeter=0;movable=0;resizable=0;rotatable=0;deletable=0;editable=0;locked=1;connectable=0;" edge="1" parent="1" source="Pu0Vnvr2uqm07rSc8rj7-4" target="Pu0Vnvr2uqm07rSc8rj7-22">
          <mxGeometry relative="1" as="geometry" />
        </mxCell>
        <mxCell id="Pu0Vnvr2uqm07rSc8rj7-31" value="" style="group" vertex="1" connectable="0" parent="1">
          <mxGeometry x="594" y="308" width="90" height="108" as="geometry" />
        </mxCell>
        <mxCell id="Pu0Vnvr2uqm07rSc8rj7-4" value="" style="sketch=0;points=[[0,0,0],[0.25,0,0],[0.5,0,0],[0.75,0,0],[1,0,0],[0,1,0],[0.25,1,0],[0.5,1,0],[0.75,1,0],[1,1,0],[0,0.25,0],[0,0.5,0],[0,0.75,0],[1,0.25,0],[1,0.5,0],[1,0.75,0]];outlineConnect=0;fontColor=#232F3E;fillColor=#E7157B;strokeColor=#ffffff;dashed=0;verticalLabelPosition=bottom;verticalAlign=top;align=center;html=1;fontSize=12;fontStyle=0;aspect=fixed;shape=mxgraph.aws4.resourceIcon;resIcon=mxgraph.aws4.eventbridge;" vertex="1" parent="Pu0Vnvr2uqm07rSc8rj7-31">
          <mxGeometry x="6" width="78" height="78" as="geometry" />
        </mxCell>
        <mxCell id="Pu0Vnvr2uqm07rSc8rj7-11" value="EventBridge" style="text;html=1;align=center;verticalAlign=middle;resizable=0;points=[];autosize=1;strokeColor=none;fillColor=none;fontColor=default;" vertex="1" parent="Pu0Vnvr2uqm07rSc8rj7-31">
          <mxGeometry y="78" width="90" height="30" as="geometry" />
        </mxCell>
        <mxCell id="Pu0Vnvr2uqm07rSc8rj7-32" value="Serverless" style="text;html=1;align=center;verticalAlign=middle;resizable=0;points=[];autosize=1;strokeColor=none;fillColor=none;" vertex="1" parent="1">
          <mxGeometry x="473" y="110" width="80" height="30" as="geometry" />
        </mxCell>
      </root>
    </mxGraphModel>
  </diagram>
</mxfile>
